<svg width="317" height="272" viewBox="0 0 317 272" fill="none" xmlns="http://www.w3.org/2000/svg">
<path d="M186.466 111.958V0H55.9824V111.958V223.916H186.466H316.95V111.958H186.466Z" fill="#585858"/>
<path d="M266.297 271.95H0V43.4617H135.813V155.42H266.297V271.95ZM5.32913 267.378H260.968V159.992H130.484V48.0342H5.32913V267.378Z" fill="#585858"/>
<path d="M213.777 1.2118H205.837V98.3776H213.777V1.2118Z" fill="#585858"/>
<path d="M234.001 1.18891H226.061V98.3547H234.001V1.18891Z" fill="#585858"/>
<path d="M254.199 1.2118H246.259V98.3776H254.199V1.2118Z" fill="#585858"/>
<path d="M274.396 1.2118H266.456V98.3776H274.396V1.2118Z" fill="#585858"/>
<path d="M294.594 1.18891H286.653V98.3547H294.594V1.18891Z" fill="#585858"/>
<path d="M314.552 1.2118H306.852V98.3776H314.552V1.2118Z" fill="#585858"/>
</svg>
