<svg width="237" height="241" viewBox="0 0 237 241" fill="none" xmlns="http://www.w3.org/2000/svg">
<path d="M227.862 18.5846C222.827 18.5846 218.724 14.4126 218.724 9.29234C218.724 4.17207 222.827 0 227.862 0C232.897 0 237 4.17207 237 9.29234C237 14.4442 232.897 18.5846 227.862 18.5846ZM237 64.8883C237 59.768 232.897 55.5959 227.862 55.5959C222.827 55.5959 218.724 59.768 218.724 64.8883C218.724 70.0085 222.827 74.1806 227.862 74.1806C232.897 74.1806 237 70.0401 237 64.8883ZM237 120.484C237 115.364 232.897 111.192 227.862 111.192C222.827 111.192 218.724 115.364 218.724 120.484C218.724 125.604 222.827 129.777 227.862 129.777C232.897 129.808 237 125.636 237 120.484ZM237 176.112C237 170.991 232.897 166.819 227.862 166.819C222.827 166.819 218.724 170.991 218.724 176.112C218.724 181.232 222.827 185.404 227.862 185.404C232.897 185.404 237 181.232 237 176.112ZM237 231.708C237 226.587 232.897 222.415 227.862 222.415C222.827 222.415 218.724 226.587 218.724 231.708C218.724 236.828 222.827 241 227.862 241C232.897 241 237 236.828 237 231.708ZM182.327 9.29234C182.327 4.17207 178.224 0 173.189 0C168.153 0 164.051 4.17207 164.051 9.29234C164.051 14.4126 168.153 18.5846 173.189 18.5846C178.224 18.5846 182.327 14.4442 182.327 9.29234ZM182.327 64.8883C182.327 59.768 178.224 55.5959 173.189 55.5959C168.153 55.5959 164.051 59.768 164.051 64.8883C164.051 70.0085 168.153 74.1806 173.189 74.1806C178.224 74.1806 182.327 70.0401 182.327 64.8883ZM182.327 120.484C182.327 115.364 178.224 111.192 173.189 111.192C168.153 111.192 164.051 115.364 164.051 120.484C164.051 125.604 168.153 129.777 173.189 129.777C178.224 129.808 182.327 125.636 182.327 120.484ZM182.327 176.112C182.327 170.991 178.224 166.819 173.189 166.819C168.153 166.819 164.051 170.991 164.051 176.112C164.051 181.232 168.153 185.404 173.189 185.404C178.224 185.404 182.327 181.232 182.327 176.112ZM182.327 231.708C182.327 226.587 178.224 222.415 173.189 222.415C168.153 222.415 164.051 226.587 164.051 231.708C164.051 236.828 168.153 241 173.189 241C178.224 241 182.327 236.828 182.327 231.708ZM127.623 9.29234C127.623 4.17207 123.52 0 118.484 0C113.449 0 109.346 4.17207 109.346 9.29234C109.346 14.4126 113.449 18.5846 118.484 18.5846C123.551 18.5846 127.623 14.4442 127.623 9.29234ZM127.623 64.8883C127.623 59.768 123.52 55.5959 118.484 55.5959C113.449 55.5959 109.346 59.768 109.346 64.8883C109.346 70.0085 113.449 74.1806 118.484 74.1806C123.551 74.1806 127.623 70.0401 127.623 64.8883ZM127.623 120.484C127.623 115.364 123.52 111.192 118.484 111.192C113.449 111.192 109.346 115.364 109.346 120.484C109.346 125.604 113.449 129.777 118.484 129.777C123.551 129.808 127.623 125.636 127.623 120.484ZM127.623 176.112C127.623 170.991 123.52 166.819 118.484 166.819C113.449 166.819 109.346 170.991 109.346 176.112C109.346 181.232 113.449 185.404 118.484 185.404C123.551 185.404 127.623 181.232 127.623 176.112ZM127.623 231.708C127.623 226.587 123.52 222.415 118.484 222.415C113.449 222.415 109.346 226.587 109.346 231.708C109.346 236.828 113.449 241 118.484 241C123.551 241 127.623 236.828 127.623 231.708ZM72.9493 9.29234C72.9493 4.17207 68.8465 0 63.8112 0C58.7759 0 54.6733 4.17207 54.6733 9.29234C54.6733 14.4126 58.7759 18.5846 63.8112 18.5846C68.8775 18.5846 72.9493 14.4442 72.9493 9.29234ZM72.9493 64.8883C72.9493 59.768 68.8465 55.5959 63.8112 55.5959C58.7759 55.5959 54.6733 59.768 54.6733 64.8883C54.6733 70.0085 58.7759 74.1806 63.8112 74.1806C68.8775 74.1806 72.9493 70.0401 72.9493 64.8883ZM72.9493 120.484C72.9493 115.364 68.8465 111.192 63.8112 111.192C58.7759 111.192 54.6733 115.364 54.6733 120.484C54.6733 125.604 58.7759 129.777 63.8112 129.777C68.8775 129.808 72.9493 125.636 72.9493 120.484ZM72.9493 176.112C72.9493 170.991 68.8465 166.819 63.8112 166.819C58.7759 166.819 54.6733 170.991 54.6733 176.112C54.6733 181.232 58.7759 185.404 63.8112 185.404C68.8775 185.404 72.9493 181.232 72.9493 176.112ZM72.9493 231.708C72.9493 226.587 68.8465 222.415 63.8112 222.415C58.7759 222.415 54.6733 226.587 54.6733 231.708C54.6733 236.828 58.7759 241 63.8112 241C68.8775 241 72.9493 236.828 72.9493 231.708ZM18.2762 9.29234C18.2762 4.17207 14.1734 0 9.13811 0C4.10283 0 0 4.17207 0 9.29234C0 14.4126 4.10283 18.5846 9.13811 18.5846C14.1734 18.5846 18.2762 14.4442 18.2762 9.29234ZM18.2762 64.8883C18.2762 59.768 14.1734 55.5959 9.13811 55.5959C4.10283 55.5959 0 59.768 0 64.8883C0 70.0085 4.10283 74.1806 9.13811 74.1806C14.1734 74.1806 18.2762 70.0401 18.2762 64.8883ZM18.2762 120.484C18.2762 115.364 14.1734 111.192 9.13811 111.192C4.10283 111.192 0 115.364 0 120.484C0 125.604 4.10283 129.777 9.13811 129.777C14.1734 129.777 18.2762 125.636 18.2762 120.484ZM18.2762 176.112C18.2762 170.991 14.1734 166.819 9.13811 166.819C4.10283 166.819 0 170.991 0 176.112C0 181.232 4.10283 185.404 9.13811 185.404C14.1734 185.404 18.2762 181.232 18.2762 176.112ZM18.2762 231.708C18.2762 226.587 14.1734 222.415 9.13811 222.415C4.10283 222.415 0 226.587 0 231.708C0 236.828 4.10283 241 9.13811 241C14.1734 241 18.2762 236.828 18.2762 231.708Z" fill="#585858"/>
</svg>
